<svg xmlns="http://www.w3.org/2000/svg" viewBox="0 0 466.94 327.55" id="unsubscribed">
    <g data-name="Layer 2">
        <g data-name="Layer 1">
            <ellipse cx="321.02" cy="292.82" fill="none" stroke="#ff5061" stroke-linecap="round"
                stroke-linejoin="round" rx="19.68" ry="34.1"></ellipse>
            <path fill="#ff5061"
                d="M337.9 307.81c2.8-6.46.68-10.42.68-15 0-9.63-3.22-20.54-9-27.38a52.88 52.88 0 0 0-2.45 15.13c.04 9.64 5.03 20.44 10.77 27.25Z"></path>
            <ellipse cx="351.3" cy="280.64" fill="#fff" rx="19.68" ry="34.1"></ellipse>
            <path fill="#ff5061"
                d="M303 293.89c0 3.8-1.55 6.84.56 12 9-7.21 15.84-19.31 15.84-31.78a55.56 55.56 0 0 0-1.91-13c-9.06 7.13-14.49 20.31-14.49 32.78Z"></path>
            <ellipse cx="296.18" cy="272.14" fill="#fff" rx="19.68" ry="34.1"></ellipse>
            <path fill="none" stroke="#ff5061" stroke-linecap="round" stroke-linejoin="round"
                d="M321.02 326.92v-51.14M321.02 295.81l-7.97-9.11M321.02 306.69l-11.49-13.13M321.02 317.9l-11.86-13.56M321.02 295.83l9.66-11.05M321.02 306.71l11.86-13.56M321.02 317.92l11.86-13.56"></path>
            <ellipse cx="296.18" cy="272.14" fill="none" stroke="#439916" stroke-linecap="round"
                stroke-linejoin="round" rx="19.68" ry="34.1"></ellipse>
            <path fill="none" stroke="#439916" stroke-linecap="round" stroke-linejoin="round"
                d="M296.18 255.1v71.95M296.18 275.13l-9.65-11.03M296.18 286.01l-11.86-13.56M296.18 297.22l-11.86-13.56M296.18 275.15l9.67-11.05M296.18 286.03l11.86-13.56M296.18 297.24l11.86-13.56"></path>
            <ellipse cx="351.3" cy="280.64" fill="none" stroke="#ffcd52" stroke-linecap="round"
                stroke-linejoin="round" rx="19.68" ry="34.1"></ellipse>
            <path fill="none" stroke="#ffcd52" stroke-linecap="round" stroke-linejoin="round"
                d="M351.3 263.6v63.45M351.3 283.63l-9.65-11.03M351.3 294.51l-11.86-13.56M351.3 305.72l-11.86-13.56M351.3 283.65l9.66-11.05M351.3 294.53l11.86-13.56M351.3 305.75l11.86-13.57"></path>
            <path fill="#f4f4f4"
                d="M311 178.79H137.93v16.24h11.98l4.26 24.04 3.23 18.23 4.31 24.28 3.95 22.28 3.45 19.46 3.75 21.15v.01l.3 1.68h102.61l5.6-31.6v-.01l1.29-7.25 6.02-33.96.45-2.56 5.59-31.53v-.01l1.07-6.03 3.23-18.18H311v-16.24z"></path>
            <rect width="97.06" height="98.1" x="342.46" y="32.45" fill="#c1e3f7" rx="13"
                transform="rotate(45 390.99 81.503)"></rect>
            <rect width="114.32" height="114.32" x="333.83" y="24.34" fill="none" stroke="#008ef8"
                stroke-linecap="round" stroke-linejoin="round" rx="13"
                transform="rotate(45 390.99 81.503)"></rect>
            <path fill="#439916"
                d="M299 194.88v.15a.77.77 0 0 0 0-.15ZM149.88 194.88a.4.4 0 0 0 0 .15Z"></path>
            <path fill="#008ef8" d="M222.21 263.96h52.21v31.4h-52.21z"
                transform="rotate(25.66 248.32 279.659)"></path>
            <path fill="#c1e3f7" d="m231.58 254.2 16.73 25.46 30.33-2.85-47.06-22.61z"></path>
            <circle cx="249.54" cy="277.1" r="1.68" fill="#008ef8"></circle>
            <path fill="#008ef8" d="M210.96 121.24h52.21v31.4h-52.21z"
                transform="rotate(52.17 237.07 136.952)"></path>
            <path fill="#c1e3f7" d="m233.46 106.69 3.6 30.25 28.42 10.99-32.02-41.24z"></path>
            <circle cx="239.31" cy="135.2" r="1.68" fill="#489ee0"></circle>
            <path fill="#c1e3f7"
                d="m225.22 212.84 8 56.24c3.44 24.09-16.73 22.31-40.82 25.74l-10.8-75.76Z"></path>
            <path fill="#008ef8" d="M172.9 277.25h18.28v19a18.28 18.28 0 0 1-18.28-18.28V277.25Z"
                transform="rotate(-8.12 181.926 286.618)"></path>
            <path fill="#008ef8"
                d="m225.22 212.84-43.6 6.22a18.27 18.27 0 0 1 20.67 15.51l.1.67 25.51-3.64L246 229l-.09-.67a18.28 18.28 0 0 0-20.69-15.49Z"></path>
            <path fill="none" stroke="#489ee0" stroke-linecap="round" stroke-linejoin="round"
                d="m191.83 248.31 31.66-5.04M192.91 254.81l31.66-5.04M194.41 259.86l31.66-5.05M195.47 264.63l31.65-5.04M196.55 269.27l31.66-5.05M197.17 274.46l31.66-5.05M197.87 279.66l31.66-5.04"></path>
            <path fill="none" stroke="#f46534" stroke-linecap="round" stroke-linejoin="round"
                stroke-width="2"
                d="m299.04 194.88-3.25 18.33-1.07 6.03v.01l-5.59 31.53h0l-.45 2.56-6.02 33.96-1.29 7.25v.01l-5.6 31.6H173.16l-.3-1.68v-.01l-3.75-21.15-3.45-19.46-3.95-22.28-4.31-24.28-3.23-18.23-4.29-24.19h149.16z"></path>
            <path fill="none" stroke="#f46534" stroke-linecap="round" stroke-linejoin="round"
                d="m164.41 194.54 22.9 131.62M178.5 194.54l22.91 131.62M192.98 194.54l22.91 131.62M206.95 194.54l22.9 131.62M221.04 194.54l22.91 131.62M235.52 194.54l22.91 131.62M249.87 194.54l22.91 131.62M281.37 294.56v-.01l-.78-4.47-3.92-22.49-4.02-23.15-3.94-22.63-3.76-21.62-.92-5.31-.07-.34M278.44 194.54l.06.34 1.94 11.11 3.93 22.63 4.03 23.14.28 1.58M290.49 194.88l3.59 20.65.64 3.71v.01M188.83 194.88l-8.32 11.23v.01l-11.41 15.39-11.7 15.79M211.13 194.88l-3.33 4.5-11.32 15.27-11.73 15.83-11.41 15.39v.01l-11.63 15.7M231.59 194.88l-8.49 11.46-11.42 15.4L200.37 237l-11.72 15.84-11.42 15.4-11.57 15.62M249.46 194.88l-11.24 15.17-11.72 15.83-11.42 15.4-11.3 15.26-11.74 15.83-11.41 15.4-11.52 15.55"></path>
            <path fill="none" stroke="#f46534" stroke-linecap="round" stroke-linejoin="round"
                d="m268.88 194.88-3.93 5.31-11.41 15.41-11.63 15.68-11.72 15.83-11.41 15.4-11.31 15.26-11.73 15.84L184.32 309l-11.46 15.47v.01M191.39 326.16l8.11-10.94 11.73-15.83 11.31-15.26 11.41-15.4 11.73-15.83 11.62-15.69 11.41-15.4 11.73-15.82 8.23-11.11M295.79 213.21l-1.71 2.32-9.71 13.09-11.72 15.82-11.41 15.41-11.62 15.69-11.73 15.82h0l-11.41 15.4-11.31 15.27-3.07 4.13M289.13 250.78h0l-.73.98-11.73 15.83-11.4 15.4-11.62 15.69-11.73 15.82v.01l-8.64 11.65M253.86 326.16l3.7-4.99 11.62-15.68 11.41-15.41 2.07-2.78"></path>
            <path fill="#439916"
                d="M379.65 168.47a49.56 49.56 0 0 1-6.1 1.05c-2.05.24-4.09.41-6.14.51s-4.1.11-6.15.06a48 48 0 0 1-6.18-.5 47.93 47.93 0 0 1 6.11-1.06q3.06-.36 6.13-.5c2.05-.1 4.1-.11 6.15-.06a47.66 47.66 0 0 1 6.18.5Z"></path>
            <path fill="#439916"
                d="M367.93 181.31a47.78 47.78 0 0 1-1.06-6.1c-.24-2.05-.41-4.09-.5-6.14s-.11-4.09-.06-6.15a46.23 46.23 0 0 1 .5-6.18 49.75 49.75 0 0 1 1.06 6.11c.23 2 .41 4.08.5 6.13s.11 4.1.06 6.15a49.49 49.49 0 0 1-.5 6.18ZM342.64 173.39a37.67 37.67 0 0 1 1.1 5.29c.25 1.77.43 3.54.54 5.32s.14 3.57.1 5.35a36.54 36.54 0 0 1-.46 5.39 36.58 36.58 0 0 1-1.1-5.29c-.25-1.77-.44-3.55-.54-5.33s-.13-3.56-.09-5.35a37.67 37.67 0 0 1 .45-5.38Z"></path>
            <path fill="#439916"
                d="M354 183.42a36.43 36.43 0 0 1-5.3 1.1c-1.77.25-3.54.44-5.32.54s-3.56.14-5.35.1a36.29 36.29 0 0 1-5.38-.46 36.3 36.3 0 0 1 5.29-1.1c1.77-.25 3.54-.43 5.32-.54s3.56-.13 5.35-.09a37.93 37.93 0 0 1 5.39.45ZM127.77 206.87a47.93 47.93 0 0 1-6.11 1.06q-3.06.36-6.13.5c-2 .1-4.1.11-6.15.06a46 46 0 0 1-6.18-.5 47.78 47.78 0 0 1 6.1-1.06c2-.24 4.09-.41 6.14-.5s4.1-.11 6.15-.06a49.8 49.8 0 0 1 6.18.5Z"></path>
            <path fill="#439916"
                d="M116 219.72a49.72 49.72 0 0 1-1.05-6.11q-.36-3.06-.51-6.13c-.1-2-.11-4.1-.06-6.15a47.66 47.66 0 0 1 .5-6.18 47.78 47.78 0 0 1 1.06 6.1q.36 3.06.5 6.14c.1 2 .11 4.09.06 6.15a48 48 0 0 1-.5 6.18ZM90.76 211.79a36.54 36.54 0 0 1 1.09 5.29c.26 1.77.44 3.55.54 5.33s.14 3.56.1 5.35a36.41 36.41 0 0 1-.46 5.38 36.27 36.27 0 0 1-1.09-5.29c-.26-1.77-.44-3.54-.54-5.32s-.14-3.57-.1-5.36a36.52 36.52 0 0 1 .46-5.38Z"></path>
            <path fill="#439916"
                d="M102.07 221.83a36.27 36.27 0 0 1-5.29 1.09c-1.77.26-3.55.44-5.32.54s-3.57.14-5.35.1a36.54 36.54 0 0 1-5.39-.46A36.54 36.54 0 0 1 86 222c1.77-.25 3.55-.44 5.33-.54s3.56-.14 5.35-.1a36.41 36.41 0 0 1 5.39.47ZM160.7 11.72a47.93 47.93 0 0 1-6.11 1.06c-2 .24-4.09.41-6.13.5s-4.1.12-6.16.07a49.49 49.49 0 0 1-6.17-.5 47.47 47.47 0 0 1 6.1-1.06c2-.24 4.09-.42 6.13-.5s4.1-.12 6.16-.06a47.93 47.93 0 0 1 6.18.49Z"></path>
            <path fill="#439916"
                d="M149 24.57a49.72 49.72 0 0 1-1.05-6.11c-.24-2-.42-4.08-.51-6.13s-.11-4.1-.06-6.15a47.81 47.81 0 0 1 .5-6.18 47.93 47.93 0 0 1 1.06 6.11q.36 3.06.5 6.13t.06 6.15a49.65 49.65 0 0 1-.5 6.18ZM123.69 16.64a36.4 36.4 0 0 1 1.09 5.3c.25 1.77.44 3.54.54 5.32s.14 3.56.1 5.35A36.29 36.29 0 0 1 125 38a37.67 37.67 0 0 1-1.1-5.29c-.25-1.77-.43-3.54-.53-5.32s-.14-3.56-.1-5.35a36.54 36.54 0 0 1 .42-5.4Z"></path>
            <path fill="#439916"
                d="M135 26.68a38 38 0 0 1-5.29 1.1c-1.77.25-3.55.43-5.33.54s-3.56.14-5.35.1a36.41 36.41 0 0 1-5.38-.46 35 35 0 0 1 5.29-1.1c1.77-.25 3.54-.44 5.32-.54s3.57-.14 5.36-.1a36.52 36.52 0 0 1 5.38.46Z"></path>
            <path fill="#ffedc5"
                d="m.19 153.43 23.26 40a36 36 0 0 1-4.2-2.22L0 158.16a34.12 34.12 0 0 1 .19-4.73ZM1.08 166.29l11.68 20.09a39.33 39.33 0 0 1-11.68-20.09ZM1.69 145.8l29.16 50.14a31.86 31.86 0 0 1-3.5-1L.8 149.26a25.45 25.45 0 0 1 .89-3.46ZM4.19 139.51l33.34 57.35a21.63 21.63 0 0 1-3.08-.28L2.91 142.33a23.3 23.3 0 0 1 1.28-2.82ZM7.3 134.3l36.3 62.44c-.93.1-1.86.15-2.82.16l-35-60.25a2.57 2.57 0 0 1 .2-.35c.4-.68.85-1.3 1.32-2ZM10.81 130l38.25 65.8c-.86.21-1.72.39-2.6.53L9.05 132a20.85 20.85 0 0 1 1.76-2ZM14.66 126.41l39.43 67.82c-.81.32-1.6.61-2.42.85l-38.94-67a20.42 20.42 0 0 1 1.93-1.67ZM19 123.32 58.92 192a20.66 20.66 0 0 1-2.25 1.14L16.9 124.7c.68-.49 1.39-.96 2.1-1.38ZM23.75 120.85l39.67 68.24a23.77 23.77 0 0 1-2.07 1.44L21.48 122a20.6 20.6 0 0 1 2.27-1.15ZM28.91 119l38.68 66.53c-.6.62-1.26 1.2-1.9 1.75l-39.25-67.52c.81-.27 1.63-.54 2.47-.76ZM34.39 117.85l36.9 63.47a24.59 24.59 0 0 1-1.7 2.09l-37.85-65.1a23.28 23.28 0 0 1 2.65-.46ZM40.36 117.49l34.19 58.81c-.34.64-.68 1.24-1 1.83-.13.22-.29.46-.43.66l-35.65-61.25c.96-.06 1.9-.08 2.89-.05ZM46.72 118.11l30.45 52.39a26.89 26.89 0 0 1-1.19 3l-32.44-55.8a21.93 21.93 0 0 1 3.18.41ZM53.79 120.06 79 163.39a29.35 29.35 0 0 1-.77 3.68l-28-48.21a33.19 33.19 0 0 1 3.56 1.2ZM62.63 124.74l16.62 28.58a32.45 32.45 0 0 1 .18 5.32L58.11 122c.84.45 1.71.93 2.53 1.45s1.36.84 1.99 1.29ZM77.38 144.59l-8.13-14a39.35 39.35 0 0 1 8.13 14Z"></path>
            <path fill="none" stroke="#008ef8" stroke-linecap="round" stroke-linejoin="round"
                d="M22.13 86.78h78.73v55.44H22.13z" transform="rotate(149.83 61.499 114.499)"></path>
            <circle cx="90.05" cy="140.12" r="35.21" fill="#c1e3f7"></circle>
            <path fill="none" stroke="#f46534" stroke-linecap="round" stroke-linejoin="round"
                stroke-width="2" d="M137.93 178.79H311v16.09H137.93z"></path>
            <path fill="#d8d8d8"
                d="M279.74 153.48c2-4 4-7.88 6.1-11.79s4.22-7.77 6.33-11.66 4.32-7.72 6.53-11.55l3.34-5.73c1.14-1.9 2.26-3.81 3.43-5.69-1 2-2 4-3 5.92l-3.1 5.87c-2.07 3.91-4.22 7.78-6.33 11.66s-4.32 7.72-6.53 11.55-4.45 7.65-6.77 11.42ZM237.06 79.34c.67-4.37 1.45-8.73 2.24-13.08s1.67-8.69 2.5-13 1.77-8.67 2.72-13l1.48-6.5c.52-2.15 1-4.31 1.55-6.45-.33 2.19-.72 4.37-1.07 6.55l-1.17 6.53c-.79 4.35-1.66 8.69-2.5 13s-1.77 8.67-2.72 13-1.95 8.66-3.03 12.95ZM197.87 162.88c-2.81-3.43-5.52-6.92-8.22-10.42s-5.34-7.05-8-10.58-5.25-7.12-7.82-10.72l-3.85-5.4c-1.25-1.83-2.53-3.63-3.76-5.48 1.41 1.71 2.77 3.46 4.15 5.18l4.07 5.24c2.7 3.51 5.34 7.06 8 10.58s5.25 7.12 7.82 10.72 5.14 7.21 7.61 10.88Z"></path>
            <path fill="#ffcd52"
                d="M195.29 103.87a10.42 10.42 0 0 0 1.44-7.44c-.64-3.33-2.81-5.72-5.63-8.76-3.88-4.17-5.25-4.1-10-8.74-3.86-3.75-6-5.81-6.87-8.86-1.2-4.1-.24-6.7.83-8.33l-24.56 2.31a11 11 0 0 0-1.65 9.14c.89 3 3 5.1 6.87 8.85 4.78 4.65 6.14 4.58 10 8.75 2.82 3 5 5.42 5.64 8.76a10.34 10.34 0 0 1-1.46 7.45Z"></path>
            <path fill="#d8d8d8"
                d="M159.82 141.54c2.38 2.72 4.67 5.51 7 8.31s4.52 5.64 6.74 8.48 4.41 5.72 6.56 8.62l3.21 4.36c1 1.48 2.11 2.94 3.13 4.43-1.19-1.36-2.34-2.75-3.51-4.12l-3.44-4.19c-2.29-2.8-4.51-5.64-6.74-8.48s-4.41-5.72-6.55-8.63-4.35-5.8-6.4-8.78ZM303 141.58c-1 2.35-2.18 4.65-3.33 6.94s-2.36 4.55-3.57 6.81-2.46 4.49-3.77 6.7l-1.95 3.31c-.69 1.08-1.34 2.19-2.05 3.26.51-1.18 1.08-2.33 1.62-3.5l1.71-3.44c1.14-2.29 2.35-4.55 3.56-6.81s2.47-4.49 3.78-6.7 2.55-4.41 4-6.57ZM226.07 43.52c-.21 4.57-.54 9.14-.88 13.7s-.76 9.12-1.14 13.67-.87 9.11-1.37 13.66l-.76 6.82c-.3 2.27-.55 4.54-.88 6.81.1-2.29.26-4.57.39-6.86l.49-6.84c.34-4.57.76-9.12 1.14-13.68s.87-9.1 1.37-13.65 1.01-9.09 1.64-13.63Z"></path>
            <path fill="none" stroke="#f46534" stroke-linecap="round" stroke-linejoin="round"
                d="m154.18 216.09 14.85-21.06"></path>
            <ellipse cx="125.68" cy="292.82" fill="none" stroke="#ff5061" stroke-linecap="round"
                stroke-linejoin="round" rx="19.68" ry="34.1"></ellipse>
            <path fill="#ff5061"
                d="M142.56 307.81c2.8-6.46.68-10.42.68-15 0-9.63-3.22-20.54-9-27.38a52.88 52.88 0 0 0-2.45 15.13c.04 9.64 5.03 20.44 10.77 27.25Z"></path>
            <ellipse cx="155.96" cy="280.64" fill="#fff" rx="19.68" ry="34.1"></ellipse>
            <path fill="#ff5061"
                d="M107.64 293.89c0 3.8-1.55 6.84.56 12 9-7.21 15.84-19.31 15.84-31.78a55.56 55.56 0 0 0-1.91-13c-9.04 7.13-14.49 20.31-14.49 32.78Z"></path>
            <ellipse cx="100.84" cy="272.14" fill="#fff" rx="19.68" ry="34.1"></ellipse>
            <path fill="none" stroke="#ff5061" stroke-linecap="round" stroke-linejoin="round"
                d="M125.68 326.92v-51.14M125.68 295.81l-7.97-9.11M125.68 306.69l-11.49-13.13M125.68 317.9l-11.86-13.56M125.68 295.83l9.66-11.05M125.68 306.71l11.86-13.56M125.68 317.92l11.86-13.56"></path>
            <ellipse cx="100.84" cy="272.14" fill="none" stroke="#008ef8" stroke-miterlimit="10"
                rx="19.68" ry="34.1"></ellipse>
            <path fill="none" stroke="#008ef8" stroke-linecap="round" stroke-linejoin="round"
                d="M100.84 255.1v71.95M100.84 275.13l-9.65-11.03M100.84 286.01l-11.86-13.56M100.84 297.22l-11.86-13.56M100.84 275.15l9.67-11.05M100.84 286.03l11.86-13.56M100.84 297.24l11.86-13.56"></path>
            <ellipse cx="155.96" cy="280.64" fill="none" stroke="#439916" stroke-linecap="round"
                stroke-linejoin="round" rx="19.68" ry="34.1"></ellipse>
            <path fill="none" stroke="#439916" stroke-linecap="round" stroke-linejoin="round"
                d="M155.96 263.6v63.45M155.96 283.63l-9.65-11.03M155.96 294.51l-11.86-13.56M155.96 305.72l-11.86-13.56M155.96 283.65l9.66-11.05M155.96 294.53l11.86-13.56M155.96 305.75l11.86-13.57"></path>
            <path fill="none" stroke="#545454" stroke-linecap="round" stroke-linejoin="round"
                d="M31.16 327.05h389.82"></path>
        </g>
    </g>
</svg>