<svg width="23" height="29" viewBox="0 0 23 29" fill="none" xmlns="http://www.w3.org/2000/svg">
<mask id="mask0_421_2327" style="mask-type:luminance" maskUnits="userSpaceOnUse" x="0" y="0" width="23" height="29">
<path d="M0 0.578125H23V28.1593H0V0.578125Z" fill="white"/>
</mask>
<g mask="url(#mask0_421_2327)">
<path d="M20.069 4.94831H18.2606V3.48279C18.2606 1.88541 16.9759 0.578125 15.3861 0.578125H7.42178C5.83571 0.578125 4.55102 1.88541 4.55102 3.48279V4.94831H2.7389C1.28845 4.94831 0.109253 6.14258 0.109253 7.6081C0.109253 8.99074 1.17166 10.1172 2.50909 10.2415V24.6895C2.50909 26.8332 4.23833 28.5812 6.35938 28.5812H16.4485C18.5733 28.5812 20.2988 26.8332 20.2988 24.6895V10.2415C21.64 10.1172 22.7024 8.99074 22.7024 7.6081C22.7024 6.14258 21.5194 4.94831 20.069 4.94831ZM6.39705 3.48279C6.39705 2.91392 6.84914 2.44676 7.42178 2.44676H15.3861C15.9587 2.44676 16.4108 2.91392 16.4108 3.48279V4.94831H6.39705V3.48279ZM16.6256 23.4199C16.6256 23.9323 16.2187 24.3504 15.6988 24.3504C15.1902 24.3504 14.7758 23.9323 14.7758 23.4199V13.5531C14.7758 13.0407 15.1902 12.6187 15.6988 12.6187C16.2187 12.6187 16.6256 13.0407 16.6256 13.5531V23.4199ZM6.18607 23.4199V13.5531C6.18607 13.0407 6.59296 12.6187 7.10909 12.6187C7.61769 12.6187 8.0321 13.0407 8.0321 13.5531V23.4199C8.0321 23.9323 7.61769 24.3504 7.10909 24.3504C6.59296 24.3504 6.18607 23.9323 6.18607 23.4199ZM10.4809 23.4199V13.5531C10.4809 13.0407 10.8953 12.6187 11.4039 12.6187C11.9125 12.6187 12.3269 13.0407 12.3269 13.5531V23.4199C12.3269 23.9323 11.9125 24.3504 11.4039 24.3504C10.8953 24.3504 10.4809 23.9323 10.4809 23.4199ZM20.069 8.39172H2.7389C2.30565 8.39172 1.95528 8.03758 1.95528 7.6081C1.95528 7.17108 2.30565 6.81318 2.7389 6.81318H20.069C20.5022 6.81318 20.8526 7.17108 20.8526 7.6081C20.8526 8.03758 20.5022 8.39172 20.069 8.39172Z" fill="white"/>
</g>
</svg>
