<svg width="23" height="28" viewBox="0 0 23 28" fill="none" xmlns="http://www.w3.org/2000/svg">
<mask id="mask0_421_2321" style="mask-type:luminance" maskUnits="userSpaceOnUse" x="0" y="0" width="23" height="28">
<path d="M0 0H23V27.9993H0V0Z" fill="white"/>
</mask>
<g mask="url(#mask0_421_2321)">
<path d="M20.069 4.36642H18.2606V2.9009C18.2606 1.30729 16.9759 0 15.3861 0H7.42178C5.83571 0 4.55102 1.30729 4.55102 2.9009V4.36642H2.7389C1.28845 4.36642 0.109253 5.56446 0.109253 7.02621C0.109253 8.40885 1.17166 9.53907 2.50909 9.65962V24.1076C2.50909 26.255 4.23833 27.9993 6.35938 27.9993H16.4485C18.5733 27.9993 20.2988 26.255 20.2988 24.1076V9.65962C21.64 9.53907 22.7024 8.40885 22.7024 7.02621C22.7024 5.56446 21.5194 4.36642 20.069 4.36642ZM6.39705 2.9009C6.39705 2.33202 6.84914 1.86487 7.42178 1.86487H15.3861C15.9587 1.86487 16.4108 2.33202 16.4108 2.9009V4.36642H6.39705V2.9009ZM16.6256 22.838C16.6256 23.3504 16.2187 23.7723 15.6988 23.7723C15.1902 23.7723 14.7758 23.3504 14.7758 22.838V12.9749C14.7758 12.4588 15.1902 12.0406 15.6988 12.0406C16.2187 12.0406 16.6256 12.4588 16.6256 12.9749V22.838ZM6.18607 22.838V12.9749C6.18607 12.4588 6.59296 12.0406 7.10909 12.0406C7.61769 12.0406 8.0321 12.4588 8.0321 12.9749V22.838C8.0321 23.3504 7.61769 23.7723 7.10909 23.7723C6.59296 23.7723 6.18607 23.3504 6.18607 22.838ZM10.4809 22.838V12.9749C10.4809 12.4588 10.8953 12.0406 11.4039 12.0406C11.9125 12.0406 12.3269 12.4588 12.3269 12.9749V22.838C12.3269 23.3504 11.9125 23.7723 11.4039 23.7723C10.8953 23.7723 10.4809 23.3504 10.4809 22.838ZM20.069 7.8136H2.7389C2.30565 7.8136 1.95528 7.45569 1.95528 7.02621C1.95528 6.58919 2.30565 6.23505 2.7389 6.23505H20.069C20.5022 6.23505 20.8526 6.58919 20.8526 7.02621C20.8526 7.45569 20.5022 7.8136 20.069 7.8136Z" fill="#3C6B0F"/>
</g>
</svg>
